# xmcd
#
# Track frame offsets:
#	180
#	12967
#	26634
#	38751
#	49965
#	62313
#	76517
#	91250
#	102576
#	114342
#	128408
#	142682
#	158326
#	171664
#	186308
#	199849
#
# Disc length: 2843 seconds
#
# Revision: 0
# Processed by: cddbd v1.5.2PL0 Copyright (c) Steve Scherf et al.
# Submitted via: dBpowerAMP V4.0
#
DISCID=c00b1910
DTITLE=Various Artist - Discover the Blues cd3
DYEAR=1900
DGENRE=Blues
TTITLE0=Brownie Mc Ghee - Born For But Luck
TTITLE1=Leadbelly - Alabama Bound
TTITLE2=Brownie Mc Ghee - Back Door Stranger
TTITLE3=Champion Jack Dupree - Chain Gang Blues
TTITLE4=Brownie Mc Ghee - Barbecue Any Old Time
TTITLE5=Muddy Waters - Burr Clover Blues
TTITLE6=Sammy Price - Boogin' a Plenty
TTITLE7=Lightnin' Hopkins - Can't Do Like You Used to
TTITLE8=T-Bone Walker - Bobby Sox Blues
TTITLE9=Lightnin' Hopkins - Blues (That Mean Old Twister)
TTITLE10=Big Boy Crudup - Crudup's Vicksburg Blues
TTITLE11=John Lee Hooker - Black Man Blues
TTITLE12=John Lee Williamson - Better Cut That Out
TTITLE13=John Lee Hooker - Christmas Time Blues
TTITLE14=T-Bone Walker - Call It Stormy Monday But Tuesday is Just as Bad
TTITLE15=John Lee Hooker - Crawling King Snake
EXTD=
EXTT0=
EXTT1=
EXTT2=
EXTT3=
EXTT4=
EXTT5=
EXTT6=
EXTT7=
EXTT8=
EXTT9=
EXTT10=
EXTT11=
EXTT12=
EXTT13=
EXTT14=
EXTT15=
PLAYORDER=
